HIERARCHY
ROOT pelvis
{
  OFFSET 0 100 0
  CHANNELS 6 Xposition Yposition Zposition Zrotation Xrotation Yrotation
  JOINT pelvis_right_femur
  {
    OFFSET -10.78128 -3.44521 -0.5502486
    CHANNELS 3 Zrotation Xrotation Yrotation
    JOINT right_femur_tibia
    {
      OFFSET -0.8047443 -44.0398 -0.1307829
      CHANNELS 3 Zrotation Xrotation Yrotation
      JOINT right_tibia_foot
      {
        OFFSET 3.006224 -47.83518 -5
        CHANNELS 3 Zrotation Xrotation Yrotation
        End Site
        {
          OFFSET 0 -5 15
        }
      }
    }
  }
  JOINT pelvis_left_femur
  {
    OFFSET 10.78128 -3.44521 -0.5502486
    CHANNELS 3 Zrotation Xrotation Yrotation
    JOINT left_femur_tibia
    {
      OFFSET 0.8047443 -44.0398 -0.1307829
      CHANNELS 3 Zrotation Xrotation Yrotation
      JOINT left_tibia_foot
      {
        OFFSET -4.370144 -48.10324 -4.275266
        CHANNELS 3 Zrotation Xrotation Yrotation
        End Site
        {
          OFFSET 0 -5 15
        }
      }
    }
  }
  JOINT pelvis_spine1
  {
    OFFSET 0 6.468898 -3.129235
    CHANNELS 3 Zrotation Xrotation Yrotation
    JOINT spine1
    {
      OFFSET 0 23.15396 4.99043
      CHANNELS 3 Zrotation Xrotation Yrotation
      JOINT spine2
      {
        OFFSET 0 20.79997 -5.064912
        CHANNELS 3 Zrotation Xrotation Yrotation
        JOINT neck
        {
          OFFSET 0 14.38658 9.616178
          CHANNELS 3 Zrotation Xrotation Yrotation
          End Site
          {
            OFFSET 0 20 0
          }
        }
      }
      JOINT right_manubrium
      {
        OFFSET -5.722621 16.35077 3.967754
        CHANNELS 3 Zrotation Xrotation Yrotation
        JOINT right_clavicle
        {
          OFFSET -13.16364 1.694482 -4.693211
          CHANNELS 3 Zrotation Xrotation Yrotation
          JOINT right_humerus
          {
            OFFSET -28.5034 -0.3100689 -2.792744
            CHANNELS 3 Zrotation Xrotation Yrotation
            JOINT right_radius
            {
              OFFSET -25.15693 0.02248979 -1.271978
              CHANNELS 3 Zrotation Xrotation Yrotation
              End Site
              {
                OFFSET -15 0 0
              }
            }
          }
        }
      }
      JOINT left_manubrium
      {
        OFFSET 5.722621 16.35077 3.967754
        CHANNELS 3 Zrotation Xrotation Yrotation
        JOINT left_clavicle
        {
          OFFSET 13.16364 1.694482 -4.693211
          CHANNELS 3 Zrotation Xrotation Yrotation
          JOINT left_humerus
          {
            OFFSET 29.39168 -1.063119 -2.237045
            CHANNELS 3 Zrotation Xrotation Yrotation
            JOINT left_radius
            {
              OFFSET 24.59957 -0.9528479 0.9047498
              CHANNELS 3 Zrotation Xrotation Yrotation
              End Site
              {
                OFFSET 15 -0 -0
              }
            }
          }
        }
      }
    }
  }
}
MOTION
Frames: 17
Frame Time: 0.0416666666667
0 103.5113 0 0.3365896 -1.687653 0.02047556 3.785298 -15.84513 8.375927 -0 36.77988 -0 -7.211937 -17.2455 -4.788274 -5.817085 11.5053 -22.59573 -0 5.619159 -0 5.931101 -16.52906 24.48064 -1.932998 -1.974257 6.571579 1.953902 9.734216 -6.284363 1.10842 21.06638 6.840381 2.995716 -26.3984 9.474481 3.908132 -21.01101 11.25304 84.1575 36.13644 -14.15444 -0 0 16.95322 -9.919068 8.164404 6.505703 6.374019 -19.9409 0.4011256 -93.4601 20.66542 24.13342 0 0 -14.18192 14.82992 12.29483 -2.902304
0.1634444 103.3859 1.76409 0.2191774 -0.850882 0.08115598 4.406119 -19.41547 8.692961 -0 35.803 -0 -6.467829 -16.28236 -4.555678 -5.951033 12.61362 -22.6359 -0 5.878026 -0 5.738858 -17.98511 24.26769 -1.919366 -1.953164 6.31077 2.10243 9.778975 -6.523635 1.078624 20.97494 6.921045 3.062341 -26.40171 9.449748 4.04447 -20.69408 11.29557 84.56321 36.10932 -14.93501 -0 0 16.33558 -9.937976 8.419659 6.481723 6.422285 -20.17602 0.2234917 -93.0621 20.7696 23.42202 0 0 -14.85745 14.53614 12.2061 -2.60265
0.3451898 103.1564 3.712348 -0.02540573 0.1192617 0.2097907 5.241892 -23.59895 8.569003 -0 33.37119 -0 -6.008259 -14.25204 -4.004333 -6.026529 13.61598 -22.17078 -0 6.291664 -0 5.559428 -19.62713 23.71714 -1.842855 -1.88874 5.665582 2.487111 9.941751 -7.154877 1.015859 20.69678 7.105107 3.205339 -26.44423 9.409527 4.3029 -19.9255 11.40109 85.7217 35.99381 -16.94952 -0 0 14.7406 -9.989056 9.084135 6.39018 6.59171 -20.83427 -0.1773269 -91.94651 20.69746 21.51012 0 0 -16.57269 14.1267 11.83989 -2.27736
0.5534591 102.7877 5.973663 -0.300272 1.128585 0.4086159 5.983433 -27.365 8.128383 -0 30.03697 -0 -5.734402 -11.75812 -3.281055 -6.069751 14.23196 -21.32786 -0 6.759144 -0 5.269069 -21.07355 22.87705 -1.796921 -1.852884 5.208036 2.75944 10.02644 -7.593707 0.9799748 20.51652 7.227574 3.299223 -26.47966 9.394509 4.495677 -19.38055 11.457 86.52662 35.91628 -18.37042 -0 0 13.64096 -9.935916 9.52634 6.276821 6.70137 -21.27711 -0.4526874 -91.21196 20.73012 20.19875 0 0 -17.77331 13.80096 11.63609 -1.985033
0.7923724 102.2607 8.686436 -0.6108478 2.210533 0.6793546 6.613573 -30.75659 7.42253 -0 25.88389 -0 -5.58394 -8.974775 -2.454378 -6.064705 14.54828 -20.13245 -0 7.516174 -0 4.724022 -22.27373 21.63472 -1.744938 -1.83064 4.770972 3.027672 10.09412 -8.017392 0.9566406 20.34206 7.338402 3.37722 -26.56338 9.415243 4.660155 -18.87828 11.49021 87.34043 35.85339 -19.75829 -0 0 12.60074 -9.762642 9.914856 6.0905 6.82259 -21.70439 -0.682329 -90.54279 20.74397 18.96666 0 0 -18.90297 13.60345 11.45919 -1.829125
1.058551 101.5852 11.93614 -0.9326466 3.202883 1.012067 7.068422 -33.3564 6.56423 -0 21.59052 -0 -5.582129 -6.348883 -1.685758 -5.988055 14.63893 -18.7628 -0 8.777526 -0 3.913592 -22.99116 20.07713 -1.701085 -1.810889 4.389903 3.261328 10.14948 -8.386926 0.9387303 20.1915 7.428645 3.441532 -26.62071 9.427824 4.808311 -18.43515 11.51802 88.04342 35.78537 -20.96286 -0 0 11.70051 -9.609087 10.26093 5.926315 6.921662 -22.07365 -0.8863097 -89.95911 20.75893 17.88778 0 0 -19.89353 13.40819 11.31014 -1.66565
1.341178 100.8254 15.75984 -1.270245 3.972208 1.390686 7.421007 -34.94567 5.757952 -0 17.90602 -0 -5.709384 -4.39959 -1.15625 -5.800706 14.62304 -17.41339 -0 10.96542 -0 2.791902 -23.01669 18.25141 -1.664488 -1.789521 4.058989 3.462601 10.19955 -8.708632 0.923398 20.06069 7.501632 3.495561 -26.64374 9.425607 4.942194 -18.04062 11.54574 88.64352 35.70785 -21.99971 -0 0 10.91828 -9.504991 10.57821 5.800057 6.999677 -22.39397 -1.073661 -89.43708 20.76189 16.93194 0 0 -20.76717 13.2038 11.17339 -1.486943
1.624999 100.0943 20.14361 -1.628909 4.359069 1.790731 7.763348 -35.34684 5.126105 -0 15.44657 -0 -6.044845 -3.398699 -0.9619568 -5.479077 14.55182 -16.22666 -0 14.42288 -0 1.459558 -22.18405 16.29256 -1.642191 -1.75879 3.788833 3.619308 10.24725 -8.968608 0.9062782 19.95746 7.555358 3.542145 -26.59333 9.38557 5.069425 -17.69269 11.58222 89.09105 35.61177 -22.81364 -0 0 10.27551 -9.526041 10.87765 5.7614 7.040696 -22.64922 -1.259996 -88.97253 20.76696 16.11207 0 0 -21.50906 12.91682 11.04322 -1.210376
1.894805 99.54471 25.04097 -2.001835 4.278649 2.183016 8.147643 -34.47023 4.695973 -0 14.47908 -0 -6.667982 -3.366976 -1.104862 -5.021386 14.32826 -15.23474 -0 19.40813 -0 0.04271612 -20.40724 14.31411 -1.639118 -1.714733 3.590769 3.720879 10.29176 -9.152691 0.8854418 19.88955 7.587911 3.582081 -26.44926 9.296511 5.191318 -17.39743 11.63056 89.34788 35.49619 -23.35646 -0 0 9.798735 -9.712658 11.1564 5.838605 7.0345 -22.82273 -1.45021 -88.57419 20.78983 15.45417 0 0 -22.09358 12.50744 10.91918 -0.7891479
2.140524 99.34566 30.37727 -2.350536 3.739968 2.536514 8.534138 -32.26223 4.409751 -0 14.90276 -0 -7.595404 -4.114688 -1.504266 -4.456348 13.66205 -14.36696 -0 25.99726 -0 -1.335972 -17.69955 12.41501 -1.65871 -1.655594 3.480171 3.755632 10.33085 -9.243683 0.8604434 19.86483 7.596792 3.614666 -26.20219 9.154077 5.30333 -17.17017 11.69082 89.37853 35.36286 -23.5741 -0 0 9.524836 -10.08858 11.40103 6.049974 6.974269 -22.89533 -1.640801 -88.26214 20.84202 15.00025 0 0 -22.48025 11.9605 10.8015 -0.2032056
2.362023 99.64443 36.04228 -2.598984 2.860541 2.824247 8.80186 -28.70032 4.185381 -0 16.26065 -0 -8.705016 -5.32292 -2.006122 -3.842636 12.05488 -13.47504 -0 33.99538 -0 -2.586543 -14.20655 10.69662 -1.701057 -1.582198 3.476448 3.711777 10.36386 -9.223375 0.8322271 19.88871 7.579644 3.637762 -25.85782 8.962533 5.392182 -17.03669 11.76066 89.15788 35.21369 -23.41199 -0 0 9.496323 -10.66056 11.58828 6.401988 6.860137 -22.85057 -1.817684 -88.06452 20.91491 14.80351 0 0 -22.61688 11.3035 10.68632 0.5182464
2.572545 100.5035 41.88162 -2.64031 1.874927 3.029781 8.790018 -23.89485 3.973917 -0 17.69199 -0 -9.679933 -6.584004 -2.369891 -3.256372 8.885464 -12.3766 -0 42.67121 -0 -3.643762 -10.31554 9.318127 -1.762672 -1.496204 3.601293 3.577952 10.39535 -9.075367 0.8021442 19.96205 7.534051 3.648421 -25.42805 8.729282 5.438 -17.02775 11.83841 88.67266 35.04345 -22.81944 -0 0 9.753386 -11.43524 11.69474 6.89814 6.697972 -22.67934 -1.961807 -88.00613 20.96985 14.91378 0 0 -22.45218 10.59763 10.56085 1.304645
2.795372 101.8231 47.71506 -2.386357 1.053747 3.142546 8.390228 -18.2358 3.782345 -0 18.05248 -0 -10.09789 -7.514905 -2.332584 -2.730447 3.775393 -10.94909 -0 50.55627 -0 -4.451259 -6.706243 8.520914 -1.835807 -1.399389 3.870302 3.348039 10.43674 -8.793487 0.7719696 20.07794 7.456945 3.642874 -24.92496 8.461424 5.419474 -17.16803 11.92441 87.93422 34.83437 -21.77466 -0 0 10.31696 -12.41986 11.70981 7.538017 6.49805 -22.38738 -2.05732 -88.09264 20.94036 15.35225 0 0 -21.96074 9.920899 10.40365 2.061909
3.049728 103.317 53.39049 -1.859193 0.4475521 3.13306 7.672691 -12.34355 3.610377 -0 16.52112 -0 -9.800459 -7.990818 -1.823149 -2.181416 -2.828465 -9.238969 -0 55.82117 -0 -4.915746 -4.098657 8.563403 -1.908706 -1.293919 4.276414 3.030532 10.50282 -8.39505 0.744672 20.21949 7.3445 3.616701 -24.35854 8.164788 5.323992 -17.45829 12.02003 87 34.55697 -20.33046 -0 0 11.16315 -13.6031 11.64902 8.305577 6.272099 -22.00203 -2.103137 -88.295 20.76225 16.07979 0 0 -21.17778 9.33122 10.19347 2.715423
3.339828 104.6071 58.82501 -1.214548 -0.2602516 2.947966 6.892657 -6.695548 3.390006 -0 13.29098 -0 -9.120482 -8.34011 -1.106761 -1.454921 -9.662336 -7.439553 -0 57.23127 -0 -4.915136 -2.790421 9.565683 -1.969232 -1.183256 4.781023 2.652329 10.60264 -7.923305 0.7245625 20.36484 7.193842 3.566229 -23.73946 7.845756 5.156334 -17.86709 12.12446 85.97326 34.18323 -18.62995 -0 0 12.21698 -14.9337 11.55172 9.159741 6.028798 -21.56591 -2.117957 -88.55649 20.42238 16.99787 0 0 -20.20479 8.828014 9.92487 3.258702
3.665419 105.3693 64.00579 -0.6371002 -1.407895 2.553433 6.282573 -1.423186 3.079563 -0 9.42743 -0 -8.452056 -9.228952 -0.5873222 -0.4768534 -15.53589 -5.768791 -0 54.54676 -0 -4.455259 -2.581674 11.38224 -2.011066 -1.0725 5.33727 2.243232 10.73287 -7.421402 0.7159603 20.49984 7.003818 3.489625 -23.07937 7.511699 4.934204 -18.35468 12.23319 84.94762 33.70272 -16.82529 -0 0 13.40358 -16.33617 11.45405 10.05063 5.769399 -21.11009 -2.126369 -88.83597 19.97318 18.0192 0 0 -19.1432 8.357087 9.615753 3.754266
4.039541 105.4209 69.00159 -0.248981 -2.951977 1.967501 5.877148 3.494965 2.724956 -0 6.177145 -0 -7.873896 -11.17615 -0.4963673 0.6666558 -19.92079 -4.417043 -0 48.18397 -0 -3.737186 -3.07496 13.59759 -2.03668 -0.9686766 5.927326 1.814663 10.88009 -6.900132 0.7223624 20.62587 6.771313 3.385206 -22.3856 7.168275 4.676636 -18.91093 12.34014 83.94098 33.12626 -14.96447 -0 0 14.72121 -17.74655 11.3647 10.94676 5.485789 -20.62886 -2.137032 -89.15115 19.49601 19.1523 0 0 -18.00841 7.854838 9.301582 4.285616
